<svg xmlns="http://www.w3.org/2000/svg" viewBox="0 0 192 192" width="192" height="192">
  <rect width="192" height="192" rx="32" fill="#0a0807"/>
  <rect x="8" y="8" width="176" height="176" rx="26" fill="none" stroke="#d4a347" stroke-width="2" opacity="0.6"/>
  <!-- Horse head silhouette -->
  <path d="M96 32 C72 32, 56 44, 52 60 C48 74, 54 84, 60 92 C64 98, 66 104, 64 112 L72 112 C72 106, 70 100, 68 94 C64 88, 60 80, 64 68 C68 56, 80 46, 96 46 C112 46, 124 56, 128 68 C132 80, 128 88, 124 94 C122 100, 120 106, 120 112 L128 112 C126 104, 128 98, 132 92 C138 84, 144 74, 140 60 C136 44, 120 32, 96 32 Z" fill="#d4a347" opacity="0.9"/>
  <!-- Ear -->
  <path d="M82 38 L78 26 L88 34 Z" fill="#d4a347"/>
  <path d="M110 38 L114 26 L104 34 Z" fill="#d4a347"/>
  <!-- Eye -->
  <circle cx="82" cy="58" r="4" fill="#0a0807"/>
  <circle cx="110" cy="58" r="4" fill="#0a0807"/>
  <!-- Nostrils -->
  <ellipse cx="86" cy="80" rx="4" ry="3" fill="#8a1a20" opacity="0.8"/>
  <ellipse cx="106" cy="80" rx="4" ry="3" fill="#8a1a20" opacity="0.8"/>
  <!-- Mane -->
  <path d="M86 38 Q82 50, 80 64 Q78 78, 76 92" stroke="#c1272d" stroke-width="4" fill="none" stroke-linecap="round"/>
  <path d="M90 36 Q88 50, 86 66 Q84 80, 82 94" stroke="#e23a3f" stroke-width="3" fill="none" stroke-linecap="round" opacity="0.7"/>
  <!-- Body suggestion -->
  <path d="M68 112 Q64 130, 62 150 L68 150 Q70 132, 74 114 Z" fill="#d4a347" opacity="0.7"/>
  <path d="M124 112 Q128 130, 130 150 L124 150 Q122 132, 118 114 Z" fill="#d4a347" opacity="0.7"/>
  <!-- Legs -->
  <rect x="66" y="148" width="8" height="24" rx="3" fill="#d4a347" opacity="0.8"/>
  <rect x="80" y="148" width="8" height="24" rx="3" fill="#d4a347" opacity="0.8"/>
  <rect x="104" y="148" width="8" height="24" rx="3" fill="#d4a347" opacity="0.8"/>
  <rect x="118" y="148" width="8" height="24" rx="3" fill="#d4a347" opacity="0.8"/>
  <!-- Hooves -->
  <rect x="65" y="168" width="10" height="6" rx="2" fill="#8a6a1f"/>
  <rect x="79" y="168" width="10" height="6" rx="2" fill="#8a6a1f"/>
  <rect x="103" y="168" width="10" height="6" rx="2" fill="#8a6a1f"/>
  <rect x="117" y="168" width="10" height="6" rx="2" fill="#8a6a1f"/>
  <!-- Chinese character 馬 (horse) -->
  <text x="96" y="185" text-anchor="middle" font-family="serif" font-size="10" fill="#d4a347" opacity="0.5" letter-spacing="1">馬</text>
</svg>
